<?xml version="1.0" encoding="UTF-8" standalone="no"?>
<svg width="38px" height="37px" viewBox="0 0 38 37" version="1.1" xmlns="http://www.w3.org/2000/svg" xmlns:xlink="http://www.w3.org/1999/xlink">
    <!-- Generator: sketchtool 3.8.3 (29802) - http://www.bohemiancoding.com/sketch -->
    <title>37F8048B-2020-4243-9C1C-F034B251FAFB</title>
    <desc>Created with sketchtool.</desc>
    <defs></defs>
    <g id="Tunnel" stroke="none" stroke-width="1" fill="none" fill-rule="evenodd">
        <g id="Etape-8-Copy" transform="translate(-702.000000, -310.000000)" fill="#71818A">
            <g id="Group-5" transform="translate(384.000000, 310.000000)">
                <g id="calendar" transform="translate(318.000000, 0.000000)">
                    <g id="Group">
                        <path d="M33.9,2.8 L29.5,2.8 L29.5,0.2 L27.5,0.2 L27.5,2.8 L20.3,2.8 L20.3,0.2 L18.3,0.2 L18.3,2.8 L10.6,2.8 L10.6,0.2 L8.6,0.2 L8.6,2.8 L4.1,2.8 C2.1,2.8 0.5,4.4 0.5,6.4 L0.5,32.8 C0.5,34.8 2.1,36.4 4.1,36.4 L33.9,36.4 C35.9,36.4 37.5,34.8 37.5,32.8 L37.5,6.4 C37.5,4.4 35.9,2.8 33.9,2.8 L33.9,2.8 Z M4.1,4.8 L33.9,4.8 C34.8,4.8 35.5,5.5 35.5,6.4 L35.5,11.3 L2.5,11.3 L2.5,6.4 C2.5,5.5 3.2,4.8 4.1,4.8 L4.1,4.8 Z M33.9,34.5 L4.1,34.5 C3.2,34.5 2.5,33.8 2.5,32.9 L2.5,13.3 L35.5,13.3 L35.5,32.8 C35.5,33.7 34.8,34.5 33.9,34.5 L33.9,34.5 Z" id="Shape"></path>
                        <rect id="Rectangle-path" x="6.7" y="16.3" width="5.9" height="5.9"></rect>
                        <rect id="Rectangle-path" x="16" y="16.3" width="5.9" height="5.9"></rect>
                        <rect id="Rectangle-path" x="25.3" y="16.3" width="5.9" height="5.9"></rect>
                        <rect id="Rectangle-path" x="6.7" y="25.8" width="5.9" height="5.9"></rect>
                        <rect id="Rectangle-path" x="16" y="25.8" width="5.9" height="5.9"></rect>
                        <rect id="Rectangle-path" x="25.3" y="25.8" width="5.9" height="5.9"></rect>
                    </g>
                </g>
            </g>
        </g>
    </g>
</svg>