<?xml version="1.0" encoding="UTF-8" standalone="no"?>
<svg width="262px" height="262px" viewBox="0 0 262 262" version="1.1" xmlns="http://www.w3.org/2000/svg" xmlns:xlink="http://www.w3.org/1999/xlink">
    <!-- Generator: Sketch 39.1 (31720) - http://www.bohemiancoding.com/sketch -->
    <title>Group 4</title>
    <desc>Created with Sketch.</desc>
    <defs>
        <rect id="path-1" x="0" y="0" width="262" height="262"></rect>
        <mask id="mask-2" maskContentUnits="userSpaceOnUse" maskUnits="objectBoundingBox" x="0" y="0" width="262" height="262" fill="white">
            <use xlink:href="#path-1"></use>
        </mask>
    </defs>
    <g id="Tunnel" stroke="none" stroke-width="1" fill="none" fill-rule="evenodd">
        <g id="Etape-5" transform="translate(-615.000000, -382.000000)">
            <g id="Group-4" transform="translate(615.000000, 382.000000)">
                <path d="M162.618372,187.302983 C156.302486,186.298131 156.158528,168.932871 156.158528,168.932871 C156.158528,168.932871 174.715442,150.561617 178.759986,125.859053 C189.639694,125.859053 196.359463,99.5963682 185.478613,90.3561855 C185.933338,80.6292865 199.463708,14 130.962963,14 C62.4622181,14 75.9931589,80.6292865 76.4461706,90.3561855 C65.5653199,99.5963682 72.284518,125.859053 83.1647975,125.859053 C87.2087698,150.561617 105.766256,168.932871 105.766256,168.932871 C105.766256,168.932871 105.622297,186.298131 99.3069825,187.302983 C78.9642989,190.53976 3,224.04492 3,260.785714 L130.962963,260.785714 L258.925926,260.785714 C258.925926,224.04492 182.961627,190.53976 162.618372,187.302983" id="Fill-1" fill="#221F20" opacity="0.0785331157"></path>
                <use id="Rectangle-96" stroke="#65677C" mask="url(#mask-2)" stroke-width="2" xlink:href="#path-1"></use>
                <g id="photo-camera" transform="translate(113.000000, 91.000000)" stroke-width="2" stroke="#FE696A">
                    <g id="Group">
                        <path d="M34.4853253,6.21048297 C33.5506549,5.27778337 32.4232501,4.81130288 31.1023251,4.81130288 L26.9155228,4.81130288 L25.9624562,2.27431291 C25.7255971,1.6649936 25.2927956,1.13944344 24.6632008,0.697727783 C24.0338678,0.256208151 23.3890847,0.0352849787 22.7285895,0.0352849787 L13.1585778,0.0352849787 C12.4981481,0.0352849787 11.853234,0.256208151 11.223901,0.697727783 C10.5945681,1.13944344 10.1617012,1.6649936 9.92490753,2.27431291 L8.97170999,4.81130288 L4.78490763,4.81130288 C3.46385178,4.81130288 2.33638145,5.27778337 1.40171103,6.21048297 C0.467237009,7.14324792 0,8.26870806 0,9.58712475 L0,26.3025993 C0,27.6210814 0.467237009,28.7466722 1.40171103,29.6791758 C2.33638145,30.6120714 3.46391725,31.0785519 4.78490763,31.0785519 L31.1018669,31.0785519 C32.4227918,31.0785519 33.5501312,30.6120714 34.4848671,29.6791758 C35.4192756,28.7466722 35.8866436,27.6210814 35.8866436,26.3025993 L35.8866436,9.58712475 C35.8869054,8.26870806 35.4195375,7.14324792 34.4853253,6.21048297 L34.4853253,6.21048297 Z M23.4500318,22.9904888 C21.9247786,24.5129066 20.0894046,25.274298 17.9434222,25.274298 C15.7974399,25.274298 13.9621878,24.5129066 12.4368127,22.9904888 C10.9114376,21.4683142 10.1489024,19.6359995 10.1489024,17.4945787 C10.1489024,15.3524887 10.9116814,13.5207823 12.4368127,11.9983036 C13.962005,10.475825 15.7975009,9.7147377 17.9434222,9.7147377 C20.0893436,9.7147377 21.9247786,10.4760074 23.4500318,11.9983036 C24.9753459,13.5205998 25.738003,15.3524887 25.738003,17.4945787 C25.738003,19.6359995 24.9754069,21.4681318 23.4500318,22.9904888 L23.4500318,22.9904888 Z" id="Shape"></path>
                    </g>
                </g>
            </g>
        </g>
    </g>
</svg>