<?xml version="1.0" encoding="UTF-8" standalone="no"?>
<svg width="27px" height="25px" viewBox="0 0 27 25" version="1.1" xmlns="http://www.w3.org/2000/svg" xmlns:xlink="http://www.w3.org/1999/xlink">
    <!-- Generator: Sketch 39.1 (31720) - http://www.bohemiancoding.com/sketch -->
    <title>Group 2</title>
    <desc>Created with Sketch.</desc>
    <defs>
        <circle id="path-1" cx="22.5" cy="11.5" r="1.5"></circle>
        <mask id="mask-2" maskContentUnits="userSpaceOnUse" maskUnits="objectBoundingBox" x="-2" y="-2" width="7" height="7">
            <rect x="19" y="8" width="7" height="7" fill="white"></rect>
            <use xlink:href="#path-1" fill="black"></use>
        </mask>
    </defs>
    <g id="Tunnel" stroke="none" stroke-width="1" fill="none" fill-rule="evenodd">
        <g id="Etape-8-Copy" transform="translate(-393.000000, -523.000000)">
            <g id="Group-2" transform="translate(394.000000, 524.000000)">
                <path d="M11.5,23 C17.8512746,23 23,17.8512746 23,11.5 C23,5.14872538 17.8512746,0 11.5,0 C5.14872538,0 0,5.14872538 0,11.5 C0,17.8512746 5.14872538,23 11.5,23 Z" id="Oval-158-Copy" stroke="#65677C" stroke-width="2"></path>
                <rect id="Rectangle-3-Copy-2" fill="#FE696A" transform="translate(14.000000, 11.500000) rotate(-270.000000) translate(-14.000000, -11.500000) " x="12.5" y="7.5" width="3" height="8" rx="1.5"></rect>
                <rect id="Rectangle-3-Copy-3" fill="#FE696A" transform="translate(11.500000, 15.000000) rotate(-180.000000) translate(-11.500000, -15.000000) " x="10" y="10" width="3" height="10" rx="1.5"></rect>
                <g id="Oval-154-Copy">
                    <use fill="#FE696A" fill-rule="evenodd" xlink:href="#path-1"></use>
                    <use stroke="#FFFFFF" mask="url(#mask-2)" stroke-width="4" xlink:href="#path-1"></use>
                </g>
            </g>
        </g>
    </g>
</svg>